<?xml version="1.0" encoding="UTF-8" standalone="no"?>
<svg width="242px" height="242px" viewBox="0 0 242 242" version="1.1" xmlns="http://www.w3.org/2000/svg" xmlns:xlink="http://www.w3.org/1999/xlink" xmlns:sketch="http://www.bohemiancoding.com/sketch/ns">
    <!-- Generator: Sketch 3.5.1 (25234) - http://www.bohemiancoding.com/sketch -->
    <title>Group 3</title>
    <desc>Created with Sketch.</desc>
    <defs></defs>
    <g id="Page-1" stroke="none" stroke-width="1" fill="none" fill-rule="evenodd" sketch:type="MSPage">
        <g id="Group-3" sketch:type="MSLayerGroup">
            <rect id="Rectangle-1" fill="#83EBF1" sketch:type="MSShapeGroup" x="0" y="0" width="242" height="242"></rect>
            <path d="M242,152.5 L242,242 L-2.84217094e-14,242 L-2.84217094e-14,152.5 L242,152.5 Z" id="Rectangle-1" fill="#424444" sketch:type="MSShapeGroup"></path>
            <g id="car" transform="translate(11.000000, 62.000000)" sketch:type="MSShapeGroup">
                <path d="M4,57.5 L1.5,87 L21.5,96 L73,97 L122,96 L80.5,43.5 L4,57.5 Z" id="Path-32" fill="#474948"></path>
                <g id="Group" transform="translate(3.205172, 69.000000)">
                    <ellipse id="Oval-1" fill="#322F2F" cx="6.8258427" cy="19.9581167" rx="6.8258427" ry="19.9581167"></ellipse>
                    <path d="M7.28089892,39.9162337 C7.28089892,39.9162337 16.3820225,39.9162335 19.1123596,39.9162335 C22.6333389,37.3645328 22.752809,35.274811 22.752809,26.9202505 C22.752809,18.56569 7.28089888,13.9242675 7.28089888,13.9242675 L7.28089892,39.9162337 Z" id="Path-10" fill="#323030"></path>
                    <ellipse id="Oval-2" fill="#D8D8D8" cx="7.28089888" cy="20.8864012" rx="3.64044944" ry="13.4601252"></ellipse>
                    <path d="M5.91573034,11.139414 L7.28089888,15.7808365 L9.1011236,10.6752717 L5.91573034,11.139414 Z" id="Path-11" fill="#323030"></path>
                    <path d="M8.19101124,19.0298322 L10.011236,16.2449787 L9.55617978,25.5278237 L8.19101124,19.0298322 Z" id="Path-12" fill="#323030"></path>
                    <path d="M7.73595506,29.2409617 L7.28089888,20.8864012 L5.00561798,25.991966 L7.73595506,29.2409617 Z" id="Path-13" fill="#323030"></path>
                    <path d="M6.37078652,18.1015477 L5.00561798,14.3884097 L4.5505618,20.8864012 L6.37078652,18.1015477 Z" id="Path-14" fill="#323030"></path>
                </g>
                <g id="Group" transform="translate(65.000000, 63.000000)">
                    <ellipse id="Oval-1" fill="#322F2F" cx="8.89221726" cy="26" rx="8.89221726" ry="26"></ellipse>
                    <path d="M9.48503183,52.0000009 C9.48503183,52.0000009 21.3413214,52 24.8982083,52 C29.4850871,48.6758278 29.6407242,45.9534884 29.6407242,35.0697674 C29.6407242,24.1860465 9.48503175,18.1395349 9.48503175,18.1395349 L9.48503183,52.0000009 Z" id="Path-10" fill="#323030"></path>
                    <ellipse id="Oval-2" fill="#D8D8D8" cx="9.48503175" cy="27.2093023" rx="4.74251587" ry="17.5348837"></ellipse>
                    <path d="M7.70658829,14.5116279 L9.48503175,20.5581395 L11.8562897,13.9069767 L7.70658829,14.5116279 Z" id="Path-11" fill="#323030"></path>
                    <path d="M10.6706607,24.7906977 L13.0419187,21.1627907 L12.4491042,33.255814 L10.6706607,24.7906977 Z" id="Path-12" fill="#323030"></path>
                    <path d="M10.0778462,38.0930233 L9.48503175,27.2093023 L6.52095933,33.8604651 L10.0778462,38.0930233 Z" id="Path-13" fill="#323030"></path>
                    <path d="M8.29940278,23.5813953 L6.52095933,18.744186 L5.92814484,27.2093023 L8.29940278,23.5813953 Z" id="Path-14" fill="#323030"></path>
                </g>
                <g id="Group" transform="translate(182.000000, 57.000000)">
                    <ellipse id="Oval-1" fill="#322F2F" cx="8.89221726" cy="26" rx="8.89221726" ry="26"></ellipse>
                    <path d="M9.48503183,52.0000009 C9.48503183,52.0000009 21.3413214,52 24.8982083,52 C29.4850871,48.6758278 29.6407242,45.9534884 29.6407242,35.0697674 C29.6407242,24.1860465 9.48503175,18.1395349 9.48503175,18.1395349 L9.48503183,52.0000009 Z" id="Path-10" fill="#323030"></path>
                </g>
                <path d="M2,89.5549281 C-6.98037184e-11,78.9999964 5.82476174e-08,86.1102829 -6.98037184e-11,70.4999964 C-2.9392766e-08,62.6508868 4.7095976,43.4467798 7.01983971,39.9276479 C15.6122889,26.8389929 13.7407201,31.1542034 20.3726323,20.3637123 C22.0847145,17.578059 31.6281807,10.3978163 35.4551593,9.82810334 C52.7729526,7.25004583 70.1308162,4.81077821 87.5748806,3.30845901 C91.2585619,2.99121269 114.647681,4.50864844 114.647681,4.50864844 C114.647681,4.50864844 122.259645,4.94285695 126,5.11149931 C133.770796,5.46186318 144.69777,5.48729625 148.5,8.00000011 C160.043629,15.6286082 151.740718,9.82810307 163.240718,17.8637111 C174.740718,25.8993191 172.240718,31.1542034 184.468025,28.2593562 C185.459517,28.0246181 186.557148,29.0610205 187.503247,29.6459504 C188.13644,30.0374244 188.939923,30.4401165 189.150315,31.1542031 C189.447252,32.1620281 188.026728,33.6708376 188.872685,34.2939265 L183.185933,36.2030281 C187.496543,39.3780058 193.604055,38.9607557 198.410394,41.3189213 C220.425959,52.1205611 219.033716,65.8828256 217.828952,89.554931 C217.443485,97.1288775 201.089254,96.9698426 195.930433,97.0275664 C167.101194,97.3501465 118,102.776996 112,102.500003 C106,102.223011 94.5864621,104.402632 90.9080097,100.496392 C80.6554481,89.6089388 85.7407181,82.3552491 79.7407181,68.2444322 C79.7407181,68.2444322 75.7407181,57.3637101 68.6102022,61.5859688 C58.3189691,67.6798123 64.5,89.5549316 64.5,97.771553 C56.8217141,97.7715532 47.86581,98.4973464 35.4551575,97.7715547 C32.7588922,97.6138734 21.2721186,97.4824837 20.3726328,95.1371815 C16.2407201,84.3637101 18.3866258,87.3575382 16.2407201,77.1379716 C13.2407201,62.8509042 7.60112678,67.6728736 7.01984002,68.2444346 C3.66670058,71.5414713 2,89.5549281 2,89.5549281 Z" id="Path-1" fill="#585A59"></path>
                <path d="M27.5,13.5 L31.5,7 L63,0.5 L66.5,6 L62.5,5.5 L61.5,3 L35.5,8.5 L31.5,12 L27.5,13.5 Z" id="Path-2" fill="#565B60"></path>
                <path d="M101,4.87474047 L138.5,0.53424488 L142,6.5 L138,5.46770843 L137,2.83463554 L111,4.87474037 L101,4.87474047 Z" id="Path-2" fill="#565B60"></path>
                <path d="M135.5,52.5 L141,65 L194.5,65 L193.5,52 L135.5,52.5 Z" id="Path-4" fill="#202B2F"></path>
                <path d="M107,82.5 L112,92 L140.5,92 L140,81.5 L107,82.5 Z" id="Path-5" fill="#202B2F"></path>
                <path d="M144,82.5 L194.5,81 L191.5,90.5 L147.5,92.5 L144,82.5 Z" id="Path-6" fill="#202B2F"></path>
                <path d="M197,80.5 L197,89 L213,88 L216,80.5 L197,80.5 Z" id="Path-7" fill="#202B2F"></path>
                <path d="M95,56 L96.5,65.5 L134.5,65 L126.5,51 L104.5,52.5 L95,56 Z" id="Path-8" fill="#D2CAC2"></path>
                <path d="M200.5,52 L200,62.5 L219.5,62.5 L213,52 L200.5,52 Z" id="Path-9" fill="#D2CAC2"></path>
                <path d="M71,10.5 C69,13.4999998 75,37.5 75,37.5 L179.5,36.5 C179.5,36.5 151.000002,12.0000002 145.5,10 C139.999998,7.99999984 73,7.50000019 71,10.5 Z" id="Path-20" fill="#A4A1A1"></path>
                <path id="Path-21" stroke="#979797" d=""></path>
                <path d="M12,38 L25.5,17 L36.5,14 L25,38.5 L12,38 Z" id="Path-22" fill="#A4A1A1"></path>
                <path d="M41.5,12.5 L29.5,39 L43,39 L53.5,10.5 L41.5,12.5 Z" id="Path-23" fill="#A4A1A1"></path>
                <path d="M51,29.5 L57,10.5 L63.5,10.5 L66,31.5 C66,31.5 65.2044154,30.1893795 59,29.5 C52.7955846,28.8106205 51,29.5 51,29.5 Z" id="Path-24" fill="#A4A1A1"></path>
                <path d="M15.4103433,52.5233066 C15.4103433,55.4346087 16.0342754,54.4694036 18.4999999,54.7826624 C20.5546292,55.0436935 23.4618364,54.8102001 24.0000002,52.5233066" id="Path-25" stroke="#333232"></path>
                <path d="M41,52 C41,54.9113021 41.623932,53.946097 44.0896566,54.2593558 C46.1442858,54.5203869 49.0514931,54.2868935 49.5896568,52" id="Path-25" stroke="#333232"></path>
                <path d="M95.5,56 L96.5,65 L104.5,65.5 L104.5,52.5 L95.5,56 Z" id="Path-27" fill="#C7A370"></path>
                <path d="M213.5,52 L215.5,61 L219,61 L213.5,52 Z" id="Path-28" fill="#C7A270"></path>
                <g id="Group-2" transform="translate(159.000000, 56.000000)" stroke="#979797">
                    <ellipse id="Oval-5" cx="3.16666667" cy="3" rx="3.16666667" ry="3"></ellipse>
                    <ellipse id="Oval-5" cx="7.38888889" cy="3" rx="3.16666667" ry="3"></ellipse>
                    <ellipse id="Oval-5" cx="11.6111111" cy="3" rx="3.16666667" ry="3"></ellipse>
                    <ellipse id="Oval-5" cx="15.8333333" cy="3" rx="3.16666667" ry="3"></ellipse>
                </g>
                <path d="M42,40.5 C42,40.5 35.9044818,47.9794768 34.5,56.5 C33.0955182,65.0205232 33.5646604,75.0097595 34.5,86 C35.4353396,96.9902405 38.5,98 38.5,98" id="Path-29" stroke="#4F504F"></path>
                <path d="M49.3242877,35.0273003 C49.3242877,45.5368305 56.9901531,41.8827857 66.6278925,41.494132" id="Path-30" stroke="#4F5150"></path>
            </g>
        </g>
    </g>
</svg>